<svg id="visual" viewBox="0 0 1920 500" width="1920" height="500" xmlns="http://www.w3.org/2000/svg" xmlns:xlink="http://www.w3.org/1999/xlink" version="1.1"><g stroke-width="1" stroke-linejoin="bevel"><path d="M983 235.3L1015 150L935 139.3Z" fill="#ffffff" stroke="#ffffff"></path><path d="M1015 150L971 122.7L935 139.3Z" fill="#ffffff" stroke="#ffffff"></path><path d="M1121 180L1048 107.7L1015 150Z" fill="#f1f1f1" stroke="#f1f1f1"></path><path d="M1015 150L1048 107.7L971 122.7Z" fill="#ffffff" stroke="#ffffff"></path><path d="M971 122.7L892 68.7L935 139.3Z" fill="#ffffff" stroke="#ffffff"></path><path d="M935 139.3L840 250.7L983 235.3Z" fill="#fcfcfc" stroke="#fcfcfc"></path><path d="M965 0L892 68.7L971 122.7Z" fill="#f5f5f5" stroke="#f5f5f5"></path><path d="M822 184L840 250.7L935 139.3Z" fill="#ffffff" stroke="#ffffff"></path><path d="M892 68.7L822 184L935 139.3Z" fill="#ffffff" stroke="#ffffff"></path><path d="M983 235.3L1121 180L1015 150Z" fill="#f8f8f8" stroke="#f8f8f8"></path><path d="M897 327.7L1039 321.3L983 235.3Z" fill="#eeeeee" stroke="#eeeeee"></path><path d="M983 235.3L1102 313.3L1121 180Z" fill="#eeeeee" stroke="#eeeeee"></path><path d="M840 250.7L897 327.7L983 235.3Z" fill="#ffffff" stroke="#ffffff"></path><path d="M1115 87.7L1037 26.3L1048 107.7Z" fill="#f1f1f1" stroke="#f1f1f1"></path><path d="M1048 107.7L1037 26.3L971 122.7Z" fill="#ffffff" stroke="#ffffff"></path><path d="M1121 180L1115 87.7L1048 107.7Z" fill="#eeeeee" stroke="#eeeeee"></path><path d="M706 115.3L796 211L822 184Z" fill="#ffffff" stroke="#ffffff"></path><path d="M822 184L796 211L840 250.7Z" fill="#f5f5f5" stroke="#f5f5f5"></path><path d="M840 250.7L833 366.3L897 327.7Z" fill="#fcfcfc" stroke="#fcfcfc"></path><path d="M985 0L965 0L971 122.7Z" fill="#ffffff" stroke="#ffffff"></path><path d="M1037 26.3L985 0L971 122.7Z" fill="#ffffff" stroke="#ffffff"></path><path d="M1039 321.3L1102 313.3L983 235.3Z" fill="#ffffff" stroke="#ffffff"></path><path d="M1102 313.3L1143 287L1121 180Z" fill="#f8f8f8" stroke="#f8f8f8"></path><path d="M1121 180L1293 140.3L1115 87.7Z" fill="#ffffff" stroke="#ffffff"></path><path d="M1143 287L1178 221L1121 180Z" fill="#f8f8f8" stroke="#f8f8f8"></path><path d="M985 0L866 -7.7L965 0Z" fill="#ffffff" stroke="#ffffff"></path><path d="M965 0L866 -7.7L892 68.7Z" fill="#ffffff" stroke="#ffffff"></path><path d="M892 68.7L764 66.3L822 184Z" fill="#eeeeee" stroke="#eeeeee"></path><path d="M761 289L833 366.3L840 250.7Z" fill="#ffffff" stroke="#ffffff"></path><path d="M897 327.7L954 429.7L1039 321.3Z" fill="#ffffff" stroke="#ffffff"></path><path d="M1039 321.3L1153 371.7L1102 313.3Z" fill="#ffffff" stroke="#ffffff"></path><path d="M866 -7.7L822 0L892 68.7Z" fill="#ffffff" stroke="#ffffff"></path><path d="M796 211L761 289L840 250.7Z" fill="#ffffff" stroke="#ffffff"></path><path d="M703 221.7L761 289L796 211Z" fill="#ffffff" stroke="#ffffff"></path><path d="M822 0L764 66.3L892 68.7Z" fill="#eeeeee" stroke="#eeeeee"></path><path d="M833 366.3L954 429.7L897 327.7Z" fill="#fcfcfc" stroke="#fcfcfc"></path><path d="M1102 313.3L1153 371.7L1143 287Z" fill="#ffffff" stroke="#ffffff"></path><path d="M1036 500L1153 371.7L1039 321.3Z" fill="#ffffff" stroke="#ffffff"></path><path d="M1143 287L1231 316.7L1178 221Z" fill="#f8f8f8" stroke="#f8f8f8"></path><path d="M1253 45.3L1184 26.3L1115 87.7Z" fill="#ffffff" stroke="#ffffff"></path><path d="M1115 87.7L1184 26.3L1037 26.3Z" fill="#f5f5f5" stroke="#f5f5f5"></path><path d="M1037 26.3L1200 0L985 0Z" fill="#f8f8f8" stroke="#f8f8f8"></path><path d="M706 115.3L703 221.7L796 211Z" fill="#ffffff" stroke="#ffffff"></path><path d="M742 0L706 115.3L764 66.3Z" fill="#f1f1f1" stroke="#f1f1f1"></path><path d="M764 66.3L706 115.3L822 184Z" fill="#ffffff" stroke="#ffffff"></path><path d="M761 289L734 350.7L833 366.3Z" fill="#f1f1f1" stroke="#f1f1f1"></path><path d="M833 366.3L912 500L954 429.7Z" fill="#f5f5f5" stroke="#f5f5f5"></path><path d="M623 271L734 350.7L761 289Z" fill="#ffffff" stroke="#ffffff"></path><path d="M866 -7.7L742 0L822 0Z" fill="#ffffff" stroke="#ffffff"></path><path d="M822 0L742 0L764 66.3Z" fill="#f5f5f5" stroke="#f5f5f5"></path><path d="M1253 45.3L1200 0L1184 26.3Z" fill="#f8f8f8" stroke="#f8f8f8"></path><path d="M1184 26.3L1200 0L1037 26.3Z" fill="#ffffff" stroke="#ffffff"></path><path d="M985 0L1200 0L866 -7.7Z" fill="#f8f8f8" stroke="#f8f8f8"></path><path d="M1153 371.7L1231 316.7L1143 287Z" fill="#f1f1f1" stroke="#f1f1f1"></path><path d="M1293 140.3L1253 45.3L1115 87.7Z" fill="#ffffff" stroke="#ffffff"></path><path d="M1293 140.3L1121 180L1178 221Z" fill="#ffffff" stroke="#ffffff"></path><path d="M795 500L912 500L833 366.3Z" fill="#ffffff" stroke="#ffffff"></path><path d="M954 429.7L1036 500L1039 321.3Z" fill="#f1f1f1" stroke="#f1f1f1"></path><path d="M912 500L1032 500L954 429.7Z" fill="#f5f5f5" stroke="#f5f5f5"></path><path d="M1153 371.7L1251 353.3L1231 316.7Z" fill="#f1f1f1" stroke="#f1f1f1"></path><path d="M1032 500L1036 500L954 429.7Z" fill="#f1f1f1" stroke="#f1f1f1"></path><path d="M1302 203.7L1293 140.3L1178 221Z" fill="#eeeeee" stroke="#eeeeee"></path><path d="M1188 498.7L1251 353.3L1153 371.7Z" fill="#f8f8f8" stroke="#f8f8f8"></path><path d="M1301 251.7L1302 203.7L1178 221Z" fill="#ffffff" stroke="#ffffff"></path><path d="M1301 251.7L1178 221L1231 316.7Z" fill="#ffffff" stroke="#ffffff"></path><path d="M1388 0L1253 0L1253 45.3Z" fill="#ffffff" stroke="#ffffff"></path><path d="M1253 45.3L1253 0L1200 0Z" fill="#ffffff" stroke="#ffffff"></path><path d="M1200 0L1253 0L866 -7.7Z" fill="#fcfcfc" stroke="#fcfcfc"></path><path d="M1251 353.3L1301 251.7L1231 316.7Z" fill="#ffffff" stroke="#ffffff"></path><path d="M592 44.3L632 166.7L706 115.3Z" fill="#f8f8f8" stroke="#f8f8f8"></path><path d="M706 115.3L632 166.7L703 221.7Z" fill="#eeeeee" stroke="#eeeeee"></path><path d="M703 221.7L623 271L761 289Z" fill="#fcfcfc" stroke="#fcfcfc"></path><path d="M668 439.7L712 416.3L734 350.7Z" fill="#ffffff" stroke="#ffffff"></path><path d="M734 350.7L712 416.3L833 366.3Z" fill="#eeeeee" stroke="#eeeeee"></path><path d="M632 166.7L623 271L703 221.7Z" fill="#f1f1f1" stroke="#f1f1f1"></path><path d="M712 416.3L795 500L833 366.3Z" fill="#f1f1f1" stroke="#f1f1f1"></path><path d="M1036 500L1156 500L1153 371.7Z" fill="#ffffff" stroke="#ffffff"></path><path d="M570 204.7L613 274.3L623 271Z" fill="#f5f5f5" stroke="#f5f5f5"></path><path d="M623 271L668 439.7L734 350.7Z" fill="#ffffff" stroke="#ffffff"></path><path d="M1156 500L1188 498.7L1153 371.7Z" fill="#f1f1f1" stroke="#f1f1f1"></path><path d="M1251 353.3L1372 318L1301 251.7Z" fill="#f5f5f5" stroke="#f5f5f5"></path><path d="M668 439.7L733 500L712 416.3Z" fill="#ffffff" stroke="#ffffff"></path><path d="M712 416.3L733 500L795 500Z" fill="#ffffff" stroke="#ffffff"></path><path d="M613 274.3L668 439.7L623 271Z" fill="#fcfcfc" stroke="#fcfcfc"></path><path d="M632 166.7L570 204.7L623 271Z" fill="#f8f8f8" stroke="#f8f8f8"></path><path d="M613 274.3L546 286L668 439.7Z" fill="#ffffff" stroke="#ffffff"></path><path d="M592 44.3L570 204.7L632 166.7Z" fill="#ffffff" stroke="#ffffff"></path><path d="M606 0L592 44.3L706 115.3Z" fill="#fcfcfc" stroke="#fcfcfc"></path><path d="M866 -7.7L606 0L742 0Z" fill="#ffffff" stroke="#ffffff"></path><path d="M742 0L606 0L706 115.3Z" fill="#f5f5f5" stroke="#f5f5f5"></path><path d="M1397 400.3L1372 318L1251 353.3Z" fill="#fcfcfc" stroke="#fcfcfc"></path><path d="M1301 251.7L1438 270L1302 203.7Z" fill="#ffffff" stroke="#ffffff"></path><path d="M1398 0L1388 0L1293 140.3Z" fill="#ffffff" stroke="#ffffff"></path><path d="M1293 140.3L1388 0L1253 45.3Z" fill="#ffffff" stroke="#ffffff"></path><path d="M503 328.7L546 286L490 278.3Z" fill="#ffffff" stroke="#ffffff"></path><path d="M570 204.7L546 286L613 274.3Z" fill="#f8f8f8" stroke="#f8f8f8"></path><path d="M1398 0L1532 94.3L1448 0Z" fill="#fcfcfc" stroke="#fcfcfc"></path><path d="M1253 0L1388 0L866 -7.7Z" fill="#f5f5f5" stroke="#f5f5f5"></path><path d="M1515 169.7L1293 140.3L1302 203.7Z" fill="#ffffff" stroke="#ffffff"></path><path d="M1388 0L1642 -3.7L866 -7.7Z" fill="#ffffff" stroke="#ffffff"></path><path d="M1156 500L1310 500L1188 498.7Z" fill="#f5f5f5" stroke="#f5f5f5"></path><path d="M1188 498.7L1310 500L1251 353.3Z" fill="#f1f1f1" stroke="#f1f1f1"></path><path d="M1450 341.3L1438 270L1372 318Z" fill="#ffffff" stroke="#ffffff"></path><path d="M1372 318L1438 270L1301 251.7Z" fill="#f1f1f1" stroke="#f1f1f1"></path><path d="M1310 500L1397 400.3L1251 353.3Z" fill="#ffffff" stroke="#ffffff"></path><path d="M1310 500L1330 500L1397 400.3Z" fill="#ffffff" stroke="#ffffff"></path><path d="M490 278.3L546 286L570 204.7Z" fill="#fcfcfc" stroke="#fcfcfc"></path><path d="M546 286L503 328.7L668 439.7Z" fill="#ffffff" stroke="#ffffff"></path><path d="M668 439.7L584 500L733 500Z" fill="#ffffff" stroke="#ffffff"></path><path d="M407 234.3L490 278.3L570 204.7Z" fill="#ffffff" stroke="#ffffff"></path><path d="M397 153.7L570 204.7L396 131.3Z" fill="#ffffff" stroke="#ffffff"></path><path d="M433 -4.7L507 0L606 0Z" fill="#ffffff" stroke="#ffffff"></path><path d="M606 0L507 0L592 44.3Z" fill="#fcfcfc" stroke="#fcfcfc"></path><path d="M503 328.7L584 500L668 439.7Z" fill="#f1f1f1" stroke="#f1f1f1"></path><path d="M1330 500L1364 497.7L1397 400.3Z" fill="#ffffff" stroke="#ffffff"></path><path d="M1530 324.7L1450 341.3L1555 389.7Z" fill="#ffffff" stroke="#ffffff"></path><path d="M1397 400.3L1450 341.3L1372 318Z" fill="#ffffff" stroke="#ffffff"></path><path d="M1515 169.7L1398 0L1293 140.3Z" fill="#f8f8f8" stroke="#f8f8f8"></path><path d="M1515 169.7L1302 203.7L1438 270Z" fill="#eeeeee" stroke="#eeeeee"></path><path d="M1398 0L1642 -3.7L1388 0Z" fill="#ffffff" stroke="#ffffff"></path><path d="M503 328.7L561 500L584 500Z" fill="#f8f8f8" stroke="#f8f8f8"></path><path d="M1543 247.3L1515 169.7L1438 270Z" fill="#f8f8f8" stroke="#f8f8f8"></path><path d="M490 278.3L433 327.7L503 328.7Z" fill="#fcfcfc" stroke="#fcfcfc"></path><path d="M503 328.7L433 327.7L561 500Z" fill="#ffffff" stroke="#ffffff"></path><path d="M402 272.3L433 327.7L490 278.3Z" fill="#ffffff" stroke="#ffffff"></path><path d="M397 153.7L407 234.3L570 204.7Z" fill="#ffffff" stroke="#ffffff"></path><path d="M402 272.3L421 327.7L433 327.7Z" fill="#fcfcfc" stroke="#fcfcfc"></path><path d="M433 327.7L345 424.7L561 500Z" fill="#ffffff" stroke="#ffffff"></path><path d="M866 -7.7L433 -4.7L606 0Z" fill="#f8f8f8" stroke="#f8f8f8"></path><path d="M396 131.3L570 204.7L592 44.3Z" fill="#ffffff" stroke="#ffffff"></path><path d="M1515 169.7L1532 94.3L1398 0Z" fill="#ffffff" stroke="#ffffff"></path><path d="M1532 94.3L1533 84.3L1448 0Z" fill="#ffffff" stroke="#ffffff"></path><path d="M396 131.3L592 44.3L507 0Z" fill="#ffffff" stroke="#ffffff"></path><path d="M357 202.7L402 272.3L407 234.3Z" fill="#ffffff" stroke="#ffffff"></path><path d="M407 234.3L402 272.3L490 278.3Z" fill="#fcfcfc" stroke="#fcfcfc"></path><path d="M433 -4.7L396 131.3L507 0Z" fill="#ffffff" stroke="#ffffff"></path><path d="M397 153.7L357 202.7L407 234.3Z" fill="#ffffff" stroke="#ffffff"></path><path d="M1515 169.7L1551 201L1532 94.3Z" fill="#ffffff" stroke="#ffffff"></path><path d="M1642 -3.7L1606 0L1676 125.3Z" fill="#ffffff" stroke="#ffffff"></path><path d="M1530 324.7L1543 247.3L1438 270Z" fill="#ffffff" stroke="#ffffff"></path><path d="M1530 324.7L1438 270L1450 341.3Z" fill="#f1f1f1" stroke="#f1f1f1"></path><path d="M1555 389.7L1450 341.3L1397 400.3Z" fill="#f5f5f5" stroke="#f5f5f5"></path><path d="M1567 241.7L1551 201L1543 247.3Z" fill="#fcfcfc" stroke="#fcfcfc"></path><path d="M1543 247.3L1551 201L1515 169.7Z" fill="#ffffff" stroke="#ffffff"></path><path d="M433 -4.7L415 0L396 131.3Z" fill="#f8f8f8" stroke="#f8f8f8"></path><path d="M1530 324.7L1567 241.7L1543 247.3Z" fill="#f5f5f5" stroke="#f5f5f5"></path><path d="M1606 0L1533 84.3L1676 125.3Z" fill="#fcfcfc" stroke="#fcfcfc"></path><path d="M433 -4.7L395 0L415 0Z" fill="#f8f8f8" stroke="#f8f8f8"></path><path d="M415 0L345 44.3L396 131.3Z" fill="#ffffff" stroke="#ffffff"></path><path d="M396 131.3L357 202.7L397 153.7Z" fill="#f1f1f1" stroke="#f1f1f1"></path><path d="M402 272.3L316 326L421 327.7Z" fill="#f5f5f5" stroke="#f5f5f5"></path><path d="M242 176.7L357 202.7L396 131.3Z" fill="#eeeeee" stroke="#eeeeee"></path><path d="M1523 500L1555 389.7L1397 400.3Z" fill="#ffffff" stroke="#ffffff"></path><path d="M1644 348.7L1657 267L1567 241.7Z" fill="#fcfcfc" stroke="#fcfcfc"></path><path d="M1330 500L1523 500L1364 497.7Z" fill="#f5f5f5" stroke="#f5f5f5"></path><path d="M1364 497.7L1523 500L1397 400.3Z" fill="#ffffff" stroke="#ffffff"></path><path d="M395 0L345 44.3L415 0Z" fill="#f5f5f5" stroke="#f5f5f5"></path><path d="M1523 500L1544 500L1555 389.7Z" fill="#ffffff" stroke="#ffffff"></path><path d="M242 176.7L316 255L357 202.7Z" fill="#ffffff" stroke="#ffffff"></path><path d="M357 202.7L316 255L402 272.3Z" fill="#ffffff" stroke="#ffffff"></path><path d="M421 327.7L345 424.7L433 327.7Z" fill="#ffffff" stroke="#ffffff"></path><path d="M1533 84.3L1606 0L1448 0Z" fill="#ffffff" stroke="#ffffff"></path><path d="M1448 0L1642 -3.7L1398 0Z" fill="#f1f1f1" stroke="#f1f1f1"></path><path d="M1533 84.3L1532 94.3L1676 125.3Z" fill="#ffffff" stroke="#ffffff"></path><path d="M1657 267L1551 201L1567 241.7Z" fill="#ffffff" stroke="#ffffff"></path><path d="M1567 241.7L1530 324.7L1644 348.7Z" fill="#f1f1f1" stroke="#f1f1f1"></path><path d="M316 255L316 326L402 272.3Z" fill="#ffffff" stroke="#ffffff"></path><path d="M322 355.3L345 424.7L421 327.7Z" fill="#f8f8f8" stroke="#f8f8f8"></path><path d="M316 326L322 355.3L421 327.7Z" fill="#ffffff" stroke="#ffffff"></path><path d="M1544 500L1567 500L1555 389.7Z" fill="#ffffff" stroke="#ffffff"></path><path d="M1644 348.7L1530 324.7L1555 389.7Z" fill="#ffffff" stroke="#ffffff"></path><path d="M1685 369.3L1644 348.7L1555 389.7Z" fill="#f8f8f8" stroke="#f8f8f8"></path><path d="M1676 125.3L1532 94.3L1551 201Z" fill="#fcfcfc" stroke="#fcfcfc"></path><path d="M1606 0L1642 -3.7L1448 0Z" fill="#fcfcfc" stroke="#fcfcfc"></path><path d="M1657 267L1676 125.3L1551 201Z" fill="#ffffff" stroke="#ffffff"></path><path d="M1685 369.3L1671 346L1644 348.7Z" fill="#f8f8f8" stroke="#f8f8f8"></path><path d="M1644 348.7L1671 346L1657 267Z" fill="#ffffff" stroke="#ffffff"></path><path d="M1657 267L1702 256.7L1676 125.3Z" fill="#ffffff" stroke="#ffffff"></path><path d="M345 44.3L242 176.7L396 131.3Z" fill="#eeeeee" stroke="#eeeeee"></path><path d="M217 335.3L265 375.7L316 326Z" fill="#f8f8f8" stroke="#f8f8f8"></path><path d="M316 326L265 375.7L322 355.3Z" fill="#ffffff" stroke="#ffffff"></path><path d="M322 355.3L265 375.7L345 424.7Z" fill="#ffffff" stroke="#ffffff"></path><path d="M217 335.3L316 326L316 255Z" fill="#f8f8f8" stroke="#f8f8f8"></path><path d="M345 44.3L220 125.3L242 176.7Z" fill="#f5f5f5" stroke="#f5f5f5"></path><path d="M395 0L261 0L345 44.3Z" fill="#f1f1f1" stroke="#f1f1f1"></path><path d="M433 -4.7L261 0L395 0Z" fill="#ffffff" stroke="#ffffff"></path><path d="M1671 346L1702 256.7L1657 267Z" fill="#ffffff" stroke="#ffffff"></path><path d="M345 424.7L306 500L561 500Z" fill="#f8f8f8" stroke="#f8f8f8"></path><path d="M265 375.7L306 500L345 424.7Z" fill="#fcfcfc" stroke="#fcfcfc"></path><path d="M1567 500L1685 369.3L1555 389.7Z" fill="#ffffff" stroke="#ffffff"></path><path d="M1671 346L1685 369.3L1702 256.7Z" fill="#fcfcfc" stroke="#fcfcfc"></path><path d="M261 0L220 125.3L345 44.3Z" fill="#ffffff" stroke="#ffffff"></path><path d="M242 176.7L217 335.3L316 255Z" fill="#eeeeee" stroke="#eeeeee"></path><path d="M141 305L217 335.3L242 176.7Z" fill="#ffffff" stroke="#ffffff"></path><path d="M265 375.7L252 500L306 500Z" fill="#ffffff" stroke="#ffffff"></path><path d="M261 0L189 111.7L220 125.3Z" fill="#ffffff" stroke="#ffffff"></path><path d="M220 125.3L189 111.7L242 176.7Z" fill="#f8f8f8" stroke="#f8f8f8"></path><path d="M165 397.7L252 500L265 375.7Z" fill="#ffffff" stroke="#ffffff"></path><path d="M1685 369.3L1764 231.7L1702 256.7Z" fill="#ffffff" stroke="#ffffff"></path><path d="M1702 256.7L1764 231.7L1676 125.3Z" fill="#f1f1f1" stroke="#f1f1f1"></path><path d="M1676 125.3L1772 0L1642 -3.7Z" fill="#ffffff" stroke="#ffffff"></path><path d="M1567 500L1737 468.7L1685 369.3Z" fill="#ffffff" stroke="#ffffff"></path><path d="M1685 369.3L1816 415.3L1764 231.7Z" fill="#fcfcfc" stroke="#fcfcfc"></path><path d="M1801 95.7L1772 0L1676 125.3Z" fill="#ffffff" stroke="#ffffff"></path><path d="M124 351.3L165 397.7L217 335.3Z" fill="#ffffff" stroke="#ffffff"></path><path d="M217 335.3L165 397.7L265 375.7Z" fill="#ffffff" stroke="#ffffff"></path><path d="M1825 151L1676 125.3L1764 231.7Z" fill="#fcfcfc" stroke="#fcfcfc"></path><path d="M1825 151L1801 95.7L1676 125.3Z" fill="#f5f5f5" stroke="#f5f5f5"></path><path d="M189 111.7L141 305L242 176.7Z" fill="#ffffff" stroke="#ffffff"></path><path d="M165 397.7L193 500L252 500Z" fill="#ffffff" stroke="#ffffff"></path><path d="M1737 468.7L1764 461.7L1685 369.3Z" fill="#f1f1f1" stroke="#f1f1f1"></path><path d="M261 0L145 0L189 111.7Z" fill="#fcfcfc" stroke="#fcfcfc"></path><path d="M0 225L65 304L141 305Z" fill="#ffffff" stroke="#ffffff"></path><path d="M433 -4.7L145 0L261 0Z" fill="#ffffff" stroke="#ffffff"></path><path d="M145 0L133 62.3L189 111.7Z" fill="#ffffff" stroke="#ffffff"></path><path d="M1920 167.7L1825 151L1920 239Z" fill="#ffffff" stroke="#ffffff"></path><path d="M1801 95.7L1834 0L1772 0Z" fill="#f1f1f1" stroke="#f1f1f1"></path><path d="M141 305L124 351.3L217 335.3Z" fill="#ffffff" stroke="#ffffff"></path><path d="M165 397.7L118 500L193 500Z" fill="#fcfcfc" stroke="#fcfcfc"></path><path d="M65 304L124 351.3L141 305Z" fill="#ffffff" stroke="#ffffff"></path><path d="M1737 468.7L1785 500L1764 461.7Z" fill="#ffffff" stroke="#ffffff"></path><path d="M1764 461.7L1813 417.3L1685 369.3Z" fill="#ffffff" stroke="#ffffff"></path><path d="M1567 500L1785 500L1737 468.7Z" fill="#ffffff" stroke="#ffffff"></path><path d="M1785 500L1813 417.3L1764 461.7Z" fill="#ffffff" stroke="#ffffff"></path><path d="M1900 500L1816 415.3L1813 417.3Z" fill="#ffffff" stroke="#ffffff"></path><path d="M1813 417.3L1816 415.3L1685 369.3Z" fill="#ffffff" stroke="#ffffff"></path><path d="M1872 89.3L1834 0L1801 95.7Z" fill="#ffffff" stroke="#ffffff"></path><path d="M1772 0L1834 0L1642 -3.7Z" fill="#ffffff" stroke="#ffffff"></path><path d="M1872 89.3L1801 95.7L1825 151Z" fill="#f5f5f5" stroke="#f5f5f5"></path><path d="M1920 167.7L1872 89.3L1825 151Z" fill="#fcfcfc" stroke="#fcfcfc"></path><path d="M0 423.7L118 500L124 351.3Z" fill="#ffffff" stroke="#ffffff"></path><path d="M124 351.3L118 500L165 397.7Z" fill="#fcfcfc" stroke="#fcfcfc"></path><path d="M0 225L141 305L189 111.7Z" fill="#ffffff" stroke="#ffffff"></path><path d="M0 141.3L189 111.7L133 62.3Z" fill="#f5f5f5" stroke="#f5f5f5"></path><path d="M1920 239L1825 151L1764 231.7Z" fill="#fcfcfc" stroke="#fcfcfc"></path><path d="M1872 89.3L1920 12.3L1834 0Z" fill="#f5f5f5" stroke="#f5f5f5"></path><path d="M1920 239L1764 231.7L1816 415.3Z" fill="#ffffff" stroke="#ffffff"></path><path d="M1920 388.3L1920 239L1816 415.3Z" fill="#ffffff" stroke="#ffffff"></path><path d="M1920 167.7L1920 12.3L1872 89.3Z" fill="#f1f1f1" stroke="#f1f1f1"></path><path d="M1920 12.3L1920 0L1834 0Z" fill="#ffffff" stroke="#ffffff"></path><path d="M1834 0L1920 0L1642 -3.7Z" fill="#f5f5f5" stroke="#f5f5f5"></path><path d="M5 0L0 141.3L133 62.3Z" fill="#ffffff" stroke="#ffffff"></path><path d="M65 304L0 423.7L124 351.3Z" fill="#ffffff" stroke="#ffffff"></path><path d="M0 141.3L0 225L189 111.7Z" fill="#ffffff" stroke="#ffffff"></path><path d="M0 225L0 238.7L65 304Z" fill="#eeeeee" stroke="#eeeeee"></path><path d="M1920 398.7L1920 388.3L1816 415.3Z" fill="#eeeeee" stroke="#eeeeee"></path><path d="M1900 500L1920 398.7L1816 415.3Z" fill="#ffffff" stroke="#ffffff"></path><path d="M145 0L5 0L133 62.3Z" fill="#ffffff" stroke="#ffffff"></path><path d="M433 -4.7L5 0L145 0Z" fill="#ffffff" stroke="#ffffff"></path><path d="M1785 500L1900 500L1813 417.3Z" fill="#ffffff" stroke="#ffffff"></path><path d="M433 -4.7L0 0L5 0Z" fill="#ffffff" stroke="#ffffff"></path><path d="M5 0L0 0L0 141.3Z" fill="#ffffff" stroke="#ffffff"></path><path d="M0 238.7L0 423.7L65 304Z" fill="#ffffff" stroke="#ffffff"></path><path d="M0 423.7L0 428.3L118 500Z" fill="#eeeeee" stroke="#eeeeee"></path><path d="M1900 500L1920 500L1920 398.7Z" fill="#ffffff" stroke="#ffffff"></path><path d="M0 428.3L0 500L118 500Z" fill="#ffffff" stroke="#ffffff"></path></g></svg>