<svg id="visual" viewBox="0 0 1920 1080" width="1920" height="1080" xmlns="http://www.w3.org/2000/svg" xmlns:xlink="http://www.w3.org/1999/xlink" version="1.1"><g stroke-width="1" stroke-linejoin="bevel"><path d="M914 516L995 450L913 445Z" fill="#f8f8f8" stroke="#caf1ce"></path><path d="M995 450L982 397L913 445Z" fill="#f2f2f2" stroke="#caf1ce"></path><path d="M914 516L1055 489L995 450Z" fill="#f4f4f4" stroke="#caf1ce"></path><path d="M995 450L1062 452L982 397Z" fill="#f5f5f5" stroke="#caf1ce"></path><path d="M1055 489L1062 452L995 450Z" fill="#f8f8f8" stroke="#caf1ce"></path><path d="M780 438L828 575L914 516Z" fill="#ffffff" stroke="#caf1ce"></path><path d="M914 516L956 664L1055 489Z" fill="#f5f5f5" stroke="#caf1ce"></path><path d="M1055 489L1119 453L1062 452Z" fill="#f8f8f8" stroke="#caf1ce"></path><path d="M1091 343L1007 304L982 397Z" fill="#f2f2f2" stroke="#caf1ce"></path><path d="M822 331L780 438L913 445Z" fill="#ffffff" stroke="#caf1ce"></path><path d="M913 445L780 438L914 516Z" fill="#f1f1f1" stroke="#caf1ce"></path><path d="M828 575L956 664L914 516Z" fill="#f1f1f1" stroke="#caf1ce"></path><path d="M1055 489L1181 558L1119 453Z" fill="#ffffff" stroke="#caf1ce"></path><path d="M1091 343L982 397L1062 452Z" fill="#fefefe" stroke="#caf1ce"></path><path d="M982 397L822 331L913 445Z" fill="#fefefe" stroke="#caf1ce"></path><path d="M743 539L800 587L828 575Z" fill="#fefefe" stroke="#caf1ce"></path><path d="M828 575L859 680L956 664Z" fill="#f7f7f7" stroke="#caf1ce"></path><path d="M1123 378L1091 343L1062 452Z" fill="#f9f9f9" stroke="#caf1ce"></path><path d="M852 284L822 331L982 397Z" fill="#f9f9f9" stroke="#caf1ce"></path><path d="M1119 453L1123 378L1062 452Z" fill="#f8f8f8" stroke="#caf1ce"></path><path d="M956 664L1103 630L1055 489Z" fill="#f1f1f1" stroke="#caf1ce"></path><path d="M780 438L743 539L828 575Z" fill="#fbfbfb" stroke="#caf1ce"></path><path d="M1027 740L1003 692L958 793Z" fill="#f1f1f1" stroke="#caf1ce"></path><path d="M956 664L1055 680L1103 630Z" fill="#fcfcfc" stroke="#caf1ce"></path><path d="M1007 304L852 284L982 397Z" fill="#f2f2f2" stroke="#caf1ce"></path><path d="M821 713L859 680L800 587Z" fill="#f7f7f7" stroke="#caf1ce"></path><path d="M800 587L859 680L828 575Z" fill="#fefefe" stroke="#caf1ce"></path><path d="M1003 692L1055 680L956 664Z" fill="#f2f2f2" stroke="#caf1ce"></path><path d="M700 396L724 407L736 299Z" fill="#f8f8f8" stroke="#caf1ce"></path><path d="M822 331L724 407L780 438Z" fill="#f2f2f2" stroke="#caf1ce"></path><path d="M780 438L685 513L743 539Z" fill="#fcfcfc" stroke="#caf1ce"></path><path d="M1152 712L1181 558L1103 630Z" fill="#f1f1f1" stroke="#caf1ce"></path><path d="M1103 630L1181 558L1055 489Z" fill="#ffffff" stroke="#caf1ce"></path><path d="M1119 453L1210 417L1123 378Z" fill="#f4f4f4" stroke="#caf1ce"></path><path d="M1181 558L1210 417L1119 453Z" fill="#ffffff" stroke="#caf1ce"></path><path d="M1153 277L1066 235L1091 343Z" fill="#f2f2f2" stroke="#caf1ce"></path><path d="M736 299L724 407L822 331Z" fill="#f8f8f8" stroke="#caf1ce"></path><path d="M724 407L685 513L780 438Z" fill="#ffffff" stroke="#caf1ce"></path><path d="M698 726L821 713L800 587Z" fill="#f9f9f9" stroke="#caf1ce"></path><path d="M958 793L1003 692L956 664Z" fill="#f1f1f1" stroke="#caf1ce"></path><path d="M700 396L685 513L724 407Z" fill="#f2f2f2" stroke="#caf1ce"></path><path d="M743 539L647 597L800 587Z" fill="#fcfcfc" stroke="#caf1ce"></path><path d="M1091 343L1066 235L1007 304Z" fill="#f1f1f1" stroke="#caf1ce"></path><path d="M1007 304L946 155L852 284Z" fill="#f9f9f9" stroke="#caf1ce"></path><path d="M1153 277L1091 343L1123 378Z" fill="#f8f8f8" stroke="#caf1ce"></path><path d="M1003 692L1027 740L1055 680Z" fill="#ffffff" stroke="#caf1ce"></path><path d="M1055 680L1152 712L1103 630Z" fill="#ffffff" stroke="#caf1ce"></path><path d="M958 793L956 664L859 680Z" fill="#f7f7f7" stroke="#caf1ce"></path><path d="M852 284L736 299L822 331Z" fill="#fefefe" stroke="#caf1ce"></path><path d="M815 181L736 299L852 284Z" fill="#fbfbfb" stroke="#caf1ce"></path><path d="M1211 340L1153 277L1123 378Z" fill="#f2f2f2" stroke="#caf1ce"></path><path d="M1210 417L1211 340L1123 378Z" fill="#f7f7f7" stroke="#caf1ce"></path><path d="M1027 740L1152 712L1055 680Z" fill="#f5f5f5" stroke="#caf1ce"></path><path d="M1181 558L1295 511L1210 417Z" fill="#f5f5f5" stroke="#caf1ce"></path><path d="M821 713L958 793L859 680Z" fill="#fefefe" stroke="#caf1ce"></path><path d="M1027 740L1041 856L1152 712Z" fill="#f4f4f4" stroke="#caf1ce"></path><path d="M982 135L946 155L1066 235Z" fill="#f1f1f1" stroke="#caf1ce"></path><path d="M1066 235L946 155L1007 304Z" fill="#fefefe" stroke="#caf1ce"></path><path d="M584 548L647 597L685 513Z" fill="#fbfbfb" stroke="#caf1ce"></path><path d="M685 513L647 597L743 539Z" fill="#f9f9f9" stroke="#caf1ce"></path><path d="M889 132L815 181L852 284Z" fill="#f4f4f4" stroke="#caf1ce"></path><path d="M633 301L627 415L700 396Z" fill="#fefefe" stroke="#caf1ce"></path><path d="M700 396L627 415L685 513Z" fill="#fbfbfb" stroke="#caf1ce"></path><path d="M633 301L700 396L736 299Z" fill="#ffffff" stroke="#caf1ce"></path><path d="M1151 170L1066 235L1153 277Z" fill="#fefefe" stroke="#caf1ce"></path><path d="M1151 170L1087 174L1066 235Z" fill="#fefefe" stroke="#caf1ce"></path><path d="M698 726L781 770L821 713Z" fill="#f7f7f7" stroke="#caf1ce"></path><path d="M821 713L825 819L958 793Z" fill="#fbfbfb" stroke="#caf1ce"></path><path d="M1316 559L1295 511L1181 558Z" fill="#f4f4f4" stroke="#caf1ce"></path><path d="M1210 417L1339 391L1211 340Z" fill="#fcfcfc" stroke="#caf1ce"></path><path d="M1087 174L982 135L1066 235Z" fill="#f9f9f9" stroke="#caf1ce"></path><path d="M946 155L889 132L852 284Z" fill="#f8f8f8" stroke="#caf1ce"></path><path d="M982 135L889 132L946 155Z" fill="#ffffff" stroke="#caf1ce"></path><path d="M647 597L698 726L800 587Z" fill="#f1f1f1" stroke="#caf1ce"></path><path d="M775 824L825 819L781 770Z" fill="#f2f2f2" stroke="#caf1ce"></path><path d="M781 770L825 819L821 713Z" fill="#f7f7f7" stroke="#caf1ce"></path><path d="M605 287L633 301L612 216Z" fill="#fcfcfc" stroke="#caf1ce"></path><path d="M612 216L633 301L736 299Z" fill="#f1f1f1" stroke="#caf1ce"></path><path d="M1235 225L1151 170L1153 277Z" fill="#fefefe" stroke="#caf1ce"></path><path d="M1087 174L1066 109L982 135Z" fill="#f9f9f9" stroke="#caf1ce"></path><path d="M1235 225L1153 277L1211 340Z" fill="#f2f2f2" stroke="#caf1ce"></path><path d="M1271 737L1268 672L1152 712Z" fill="#f5f5f5" stroke="#caf1ce"></path><path d="M1152 712L1268 672L1181 558Z" fill="#ffffff" stroke="#caf1ce"></path><path d="M1268 672L1316 559L1181 558Z" fill="#fcfcfc" stroke="#caf1ce"></path><path d="M1293 229L1235 225L1211 340Z" fill="#f7f7f7" stroke="#caf1ce"></path><path d="M494 388L579 496L627 415Z" fill="#f7f7f7" stroke="#caf1ce"></path><path d="M627 415L579 496L685 513Z" fill="#fbfbfb" stroke="#caf1ce"></path><path d="M647 597L525 735L698 726Z" fill="#f7f7f7" stroke="#caf1ce"></path><path d="M579 496L584 548L685 513Z" fill="#fefefe" stroke="#caf1ce"></path><path d="M1339 391L1210 417L1349 419Z" fill="#fefefe" stroke="#caf1ce"></path><path d="M515 579L580 581L584 548Z" fill="#ffffff" stroke="#caf1ce"></path><path d="M584 548L580 581L647 597Z" fill="#f8f8f8" stroke="#caf1ce"></path><path d="M999 915L1041 856L958 793Z" fill="#f4f4f4" stroke="#caf1ce"></path><path d="M958 793L1041 856L1027 740Z" fill="#f5f5f5" stroke="#caf1ce"></path><path d="M685 795L781 770L698 726Z" fill="#f2f2f2" stroke="#caf1ce"></path><path d="M685 795L775 824L781 770Z" fill="#f7f7f7" stroke="#caf1ce"></path><path d="M879 958L999 915L958 793Z" fill="#fcfcfc" stroke="#caf1ce"></path><path d="M1161 99L1087 174L1151 170Z" fill="#f4f4f4" stroke="#caf1ce"></path><path d="M1161 99L1066 109L1087 174Z" fill="#fbfbfb" stroke="#caf1ce"></path><path d="M875 0L844 66L889 132Z" fill="#f4f4f4" stroke="#caf1ce"></path><path d="M612 216L736 299L658 150Z" fill="#f7f7f7" stroke="#caf1ce"></path><path d="M633 301L574 333L627 415Z" fill="#fcfcfc" stroke="#caf1ce"></path><path d="M1349 419L1210 417L1295 511Z" fill="#f8f8f8" stroke="#caf1ce"></path><path d="M1396 470L1349 419L1295 511Z" fill="#f5f5f5" stroke="#caf1ce"></path><path d="M605 287L574 333L633 301Z" fill="#f9f9f9" stroke="#caf1ce"></path><path d="M579 496L515 579L584 548Z" fill="#fbfbfb" stroke="#caf1ce"></path><path d="M1188 834L1271 737L1152 712Z" fill="#f7f7f7" stroke="#caf1ce"></path><path d="M1268 672L1347 598L1316 559Z" fill="#f9f9f9" stroke="#caf1ce"></path><path d="M1308 725L1347 598L1268 672Z" fill="#f4f4f4" stroke="#caf1ce"></path><path d="M1316 559L1396 470L1295 511Z" fill="#fcfcfc" stroke="#caf1ce"></path><path d="M525 735L685 795L698 726Z" fill="#f1f1f1" stroke="#caf1ce"></path><path d="M1414 233L1336 311L1480 340Z" fill="#f8f8f8" stroke="#caf1ce"></path><path d="M1339 391L1336 311L1211 340Z" fill="#f8f8f8" stroke="#caf1ce"></path><path d="M1336 311L1293 229L1211 340Z" fill="#f1f1f1" stroke="#caf1ce"></path><path d="M1235 225L1161 99L1151 170Z" fill="#f4f4f4" stroke="#caf1ce"></path><path d="M1041 856L1188 834L1152 712Z" fill="#fcfcfc" stroke="#caf1ce"></path><path d="M984 0L889 132L982 135Z" fill="#fbfbfb" stroke="#caf1ce"></path><path d="M889 132L844 66L815 181Z" fill="#fbfbfb" stroke="#caf1ce"></path><path d="M658 150L736 299L815 181Z" fill="#fbfbfb" stroke="#caf1ce"></path><path d="M470 191L438 317L574 333Z" fill="#fbfbfb" stroke="#caf1ce"></path><path d="M1307 829L1308 725L1271 737Z" fill="#f9f9f9" stroke="#caf1ce"></path><path d="M1271 737L1308 725L1268 672Z" fill="#f2f2f2" stroke="#caf1ce"></path><path d="M1285 43L1161 99L1235 225Z" fill="#f7f7f7" stroke="#caf1ce"></path><path d="M1066 109L984 0L982 135Z" fill="#f8f8f8" stroke="#caf1ce"></path><path d="M786 921L825 819L775 824Z" fill="#f4f4f4" stroke="#caf1ce"></path><path d="M879 958L958 793L825 819Z" fill="#f1f1f1" stroke="#caf1ce"></path><path d="M1041 856L1192 873L1188 834Z" fill="#f4f4f4" stroke="#caf1ce"></path><path d="M703 42L658 150L815 181Z" fill="#f1f1f1" stroke="#caf1ce"></path><path d="M1437 581L1396 470L1347 598Z" fill="#f8f8f8" stroke="#caf1ce"></path><path d="M1347 598L1396 470L1316 559Z" fill="#f7f7f7" stroke="#caf1ce"></path><path d="M1349 419L1480 340L1339 391Z" fill="#f8f8f8" stroke="#caf1ce"></path><path d="M475 515L515 579L579 496Z" fill="#f7f7f7" stroke="#caf1ce"></path><path d="M580 581L525 735L647 597Z" fill="#f8f8f8" stroke="#caf1ce"></path><path d="M999 915L1043 923L1041 856Z" fill="#f4f4f4" stroke="#caf1ce"></path><path d="M620 890L689 853L685 795Z" fill="#fefefe" stroke="#caf1ce"></path><path d="M685 795L689 853L775 824Z" fill="#f5f5f5" stroke="#caf1ce"></path><path d="M1043 923L1192 873L1041 856Z" fill="#f1f1f1" stroke="#caf1ce"></path><path d="M1188 834L1265 842L1271 737Z" fill="#fefefe" stroke="#caf1ce"></path><path d="M438 317L494 388L574 333Z" fill="#f9f9f9" stroke="#caf1ce"></path><path d="M574 333L494 388L627 415Z" fill="#ffffff" stroke="#caf1ce"></path><path d="M875 0L784 40L844 66Z" fill="#f5f5f5" stroke="#caf1ce"></path><path d="M844 66L784 40L815 181Z" fill="#f1f1f1" stroke="#caf1ce"></path><path d="M689 853L786 921L775 824Z" fill="#f5f5f5" stroke="#caf1ce"></path><path d="M999 915L1008 966L1043 923Z" fill="#fefefe" stroke="#caf1ce"></path><path d="M786 921L854 947L825 819Z" fill="#f4f4f4" stroke="#caf1ce"></path><path d="M458 446L475 515L579 496Z" fill="#f9f9f9" stroke="#caf1ce"></path><path d="M1192 873L1265 842L1188 834Z" fill="#f5f5f5" stroke="#caf1ce"></path><path d="M1067 0L984 0L1066 109Z" fill="#f2f2f2" stroke="#caf1ce"></path><path d="M869 1080L879 958L854 947Z" fill="#ffffff" stroke="#caf1ce"></path><path d="M854 947L879 958L825 819Z" fill="#fcfcfc" stroke="#caf1ce"></path><path d="M642 954L798 941L786 921Z" fill="#f8f8f8" stroke="#caf1ce"></path><path d="M786 921L798 941L854 947Z" fill="#f8f8f8" stroke="#caf1ce"></path><path d="M984 0L875 0L889 132Z" fill="#f9f9f9" stroke="#caf1ce"></path><path d="M879 958L1008 966L999 915Z" fill="#f9f9f9" stroke="#caf1ce"></path><path d="M1218 1000L1240 933L1192 873Z" fill="#f2f2f2" stroke="#caf1ce"></path><path d="M1366 898L1307 829L1265 842Z" fill="#f8f8f8" stroke="#caf1ce"></path><path d="M1153 0L1067 0L1161 99Z" fill="#f7f7f7" stroke="#caf1ce"></path><path d="M1161 99L1067 0L1066 109Z" fill="#f8f8f8" stroke="#caf1ce"></path><path d="M494 388L458 446L579 496Z" fill="#f1f1f1" stroke="#caf1ce"></path><path d="M1417 670L1347 598L1308 725Z" fill="#f8f8f8" stroke="#caf1ce"></path><path d="M1417 670L1437 581L1347 598Z" fill="#f4f4f4" stroke="#caf1ce"></path><path d="M524 776L525 735L452 746Z" fill="#fbfbfb" stroke="#caf1ce"></path><path d="M433 604L525 735L515 579Z" fill="#ffffff" stroke="#caf1ce"></path><path d="M515 579L525 735L580 581Z" fill="#fefefe" stroke="#caf1ce"></path><path d="M689 853L642 954L786 921Z" fill="#f7f7f7" stroke="#caf1ce"></path><path d="M1240 933L1265 842L1192 873Z" fill="#f2f2f2" stroke="#caf1ce"></path><path d="M1265 842L1307 829L1271 737Z" fill="#f9f9f9" stroke="#caf1ce"></path><path d="M1393 807L1417 670L1308 725Z" fill="#f4f4f4" stroke="#caf1ce"></path><path d="M784 40L703 42L815 181Z" fill="#f8f8f8" stroke="#caf1ce"></path><path d="M470 191L605 287L612 216Z" fill="#ffffff" stroke="#caf1ce"></path><path d="M438 317L426 400L494 388Z" fill="#f7f7f7" stroke="#caf1ce"></path><path d="M494 388L426 400L458 446Z" fill="#f8f8f8" stroke="#caf1ce"></path><path d="M732 0L703 42L784 40Z" fill="#f4f4f4" stroke="#caf1ce"></path><path d="M1414 233L1353 160L1293 229Z" fill="#f2f2f2" stroke="#caf1ce"></path><path d="M1293 229L1353 160L1235 225Z" fill="#f9f9f9" stroke="#caf1ce"></path><path d="M1414 233L1293 229L1336 311Z" fill="#f2f2f2" stroke="#caf1ce"></path><path d="M1336 311L1339 391L1480 340Z" fill="#fefefe" stroke="#caf1ce"></path><path d="M524 776L538 795L525 735Z" fill="#f9f9f9" stroke="#caf1ce"></path><path d="M525 735L538 795L685 795Z" fill="#ffffff" stroke="#caf1ce"></path><path d="M1226 0L1153 0L1161 99Z" fill="#f8f8f8" stroke="#caf1ce"></path><path d="M433 604L515 579L421 556Z" fill="#fbfbfb" stroke="#caf1ce"></path><path d="M1480 340L1349 419L1396 470Z" fill="#f2f2f2" stroke="#caf1ce"></path><path d="M538 795L620 890L685 795Z" fill="#f9f9f9" stroke="#caf1ce"></path><path d="M875 0L732 0L784 40Z" fill="#f1f1f1" stroke="#caf1ce"></path><path d="M574 333L605 287L470 191Z" fill="#f9f9f9" stroke="#caf1ce"></path><path d="M421 556L515 579L475 515Z" fill="#f4f4f4" stroke="#caf1ce"></path><path d="M612 216L658 150L551 93Z" fill="#f5f5f5" stroke="#caf1ce"></path><path d="M421 556L475 515L458 446Z" fill="#fefefe" stroke="#caf1ce"></path><path d="M281 437L421 556L458 446Z" fill="#f9f9f9" stroke="#caf1ce"></path><path d="M1136 1034L1192 873L1043 923Z" fill="#fbfbfb" stroke="#caf1ce"></path><path d="M1307 829L1393 807L1308 725Z" fill="#fefefe" stroke="#caf1ce"></path><path d="M551 93L658 150L655 0Z" fill="#fefefe" stroke="#caf1ce"></path><path d="M1574 427L1480 340L1396 470Z" fill="#fefefe" stroke="#caf1ce"></path><path d="M1366 898L1393 807L1307 829Z" fill="#f1f1f1" stroke="#caf1ce"></path><path d="M1518 615L1511 562L1437 581Z" fill="#f9f9f9" stroke="#caf1ce"></path><path d="M1385 71L1285 43L1353 160Z" fill="#f1f1f1" stroke="#caf1ce"></path><path d="M1353 160L1285 43L1235 225Z" fill="#f2f2f2" stroke="#caf1ce"></path><path d="M957 1080L1067 1020L1008 966Z" fill="#f8f8f8" stroke="#caf1ce"></path><path d="M1008 966L1067 1020L1043 923Z" fill="#fbfbfb" stroke="#caf1ce"></path><path d="M957 1080L1008 966L879 958Z" fill="#f1f1f1" stroke="#caf1ce"></path><path d="M957 1080L879 958L869 1080Z" fill="#f7f7f7" stroke="#caf1ce"></path><path d="M1285 43L1226 0L1161 99Z" fill="#f2f2f2" stroke="#caf1ce"></path><path d="M655 0L658 150L703 42Z" fill="#fcfcfc" stroke="#caf1ce"></path><path d="M1414 233L1427 180L1353 160Z" fill="#f1f1f1" stroke="#caf1ce"></path><path d="M1538 235L1427 180L1414 233Z" fill="#fcfcfc" stroke="#caf1ce"></path><path d="M551 93L470 191L612 216Z" fill="#ffffff" stroke="#caf1ce"></path><path d="M732 0L655 0L703 42Z" fill="#f7f7f7" stroke="#caf1ce"></path><path d="M1518 615L1437 581L1417 670Z" fill="#fefefe" stroke="#caf1ce"></path><path d="M1437 581L1511 562L1396 470Z" fill="#f5f5f5" stroke="#caf1ce"></path><path d="M427 813L490 889L538 795Z" fill="#ffffff" stroke="#caf1ce"></path><path d="M593 939L642 954L620 890Z" fill="#fefefe" stroke="#caf1ce"></path><path d="M433 604L452 746L525 735Z" fill="#f9f9f9" stroke="#caf1ce"></path><path d="M427 813L452 746L378 765Z" fill="#f1f1f1" stroke="#caf1ce"></path><path d="M593 939L620 890L490 889Z" fill="#fbfbfb" stroke="#caf1ce"></path><path d="M620 890L642 954L689 853Z" fill="#f8f8f8" stroke="#caf1ce"></path><path d="M1393 807L1481 692L1417 670Z" fill="#f4f4f4" stroke="#caf1ce"></path><path d="M1481 692L1518 615L1417 670Z" fill="#f9f9f9" stroke="#caf1ce"></path><path d="M490 889L620 890L538 795Z" fill="#fbfbfb" stroke="#caf1ce"></path><path d="M1067 1020L1136 1034L1043 923Z" fill="#fbfbfb" stroke="#caf1ce"></path><path d="M1240 933L1366 898L1265 842Z" fill="#f2f2f2" stroke="#caf1ce"></path><path d="M1131 1080L1136 1034L1067 1020Z" fill="#fcfcfc" stroke="#caf1ce"></path><path d="M1136 1034L1218 1000L1192 873Z" fill="#f5f5f5" stroke="#caf1ce"></path><path d="M1293 1013L1366 898L1240 933Z" fill="#f5f5f5" stroke="#caf1ce"></path><path d="M1393 807L1521 746L1481 692Z" fill="#f9f9f9" stroke="#caf1ce"></path><path d="M1427 180L1385 71L1353 160Z" fill="#f8f8f8" stroke="#caf1ce"></path><path d="M1285 43L1363 0L1226 0Z" fill="#fbfbfb" stroke="#caf1ce"></path><path d="M854 947L798 941L778 1080Z" fill="#f5f5f5" stroke="#caf1ce"></path><path d="M869 1080L854 947L778 1080Z" fill="#f9f9f9" stroke="#caf1ce"></path><path d="M459 83L412 207L470 191Z" fill="#f1f1f1" stroke="#caf1ce"></path><path d="M470 191L412 207L438 317Z" fill="#f1f1f1" stroke="#caf1ce"></path><path d="M438 317L341 351L426 400Z" fill="#f4f4f4" stroke="#caf1ce"></path><path d="M281 437L291 550L421 556Z" fill="#f1f1f1" stroke="#caf1ce"></path><path d="M459 83L470 191L551 93Z" fill="#f7f7f7" stroke="#caf1ce"></path><path d="M778 1080L798 941L698 1080Z" fill="#fcfcfc" stroke="#caf1ce"></path><path d="M957 1080L1056 1080L1067 1020Z" fill="#f4f4f4" stroke="#caf1ce"></path><path d="M1136 1034L1131 1080L1218 1000Z" fill="#fefefe" stroke="#caf1ce"></path><path d="M1593 389L1542 318L1480 340Z" fill="#f8f8f8" stroke="#caf1ce"></path><path d="M1480 340L1538 235L1414 233Z" fill="#f9f9f9" stroke="#caf1ce"></path><path d="M1427 180L1480 76L1385 71Z" fill="#f7f7f7" stroke="#caf1ce"></path><path d="M1574 427L1396 470L1511 562Z" fill="#f9f9f9" stroke="#caf1ce"></path><path d="M427 813L538 795L524 776Z" fill="#ffffff" stroke="#caf1ce"></path><path d="M698 1080L798 941L642 954Z" fill="#f2f2f2" stroke="#caf1ce"></path><path d="M655 0L561 0L551 93Z" fill="#f7f7f7" stroke="#caf1ce"></path><path d="M378 765L452 746L433 604Z" fill="#f7f7f7" stroke="#caf1ce"></path><path d="M452 746L427 813L524 776Z" fill="#fcfcfc" stroke="#caf1ce"></path><path d="M378 765L433 604L299 743Z" fill="#f7f7f7" stroke="#caf1ce"></path><path d="M1591 433L1574 427L1601 538Z" fill="#f2f2f2" stroke="#caf1ce"></path><path d="M323 321L341 351L438 317Z" fill="#f2f2f2" stroke="#caf1ce"></path><path d="M698 1080L642 954L603 1080Z" fill="#fefefe" stroke="#caf1ce"></path><path d="M1056 1080L1131 1080L1067 1020Z" fill="#f4f4f4" stroke="#caf1ce"></path><path d="M1218 1000L1293 1013L1240 933Z" fill="#f5f5f5" stroke="#caf1ce"></path><path d="M1481 692L1588 628L1518 615Z" fill="#fbfbfb" stroke="#caf1ce"></path><path d="M1601 538L1574 427L1511 562Z" fill="#fbfbfb" stroke="#caf1ce"></path><path d="M1533 791L1521 746L1393 807Z" fill="#f9f9f9" stroke="#caf1ce"></path><path d="M1389 0L1363 0L1385 71Z" fill="#fcfcfc" stroke="#caf1ce"></path><path d="M1385 71L1363 0L1285 43Z" fill="#f4f4f4" stroke="#caf1ce"></path><path d="M1269 1080L1293 1013L1218 1000Z" fill="#ffffff" stroke="#caf1ce"></path><path d="M1366 898L1412 941L1393 807Z" fill="#f9f9f9" stroke="#caf1ce"></path><path d="M467 0L459 83L551 93Z" fill="#f7f7f7" stroke="#caf1ce"></path><path d="M412 207L350 253L438 317Z" fill="#fcfcfc" stroke="#caf1ce"></path><path d="M1582 219L1538 235L1614 284Z" fill="#f8f8f8" stroke="#caf1ce"></path><path d="M1542 318L1538 235L1480 340Z" fill="#f8f8f8" stroke="#caf1ce"></path><path d="M1601 538L1511 562L1588 628Z" fill="#f9f9f9" stroke="#caf1ce"></path><path d="M1574 427L1593 389L1480 340Z" fill="#f2f2f2" stroke="#caf1ce"></path><path d="M427 813L369 862L490 889Z" fill="#fcfcfc" stroke="#caf1ce"></path><path d="M291 550L433 604L421 556Z" fill="#f4f4f4" stroke="#caf1ce"></path><path d="M312 217L350 253L412 207Z" fill="#f4f4f4" stroke="#caf1ce"></path><path d="M1591 433L1593 389L1574 427Z" fill="#f5f5f5" stroke="#caf1ce"></path><path d="M350 253L323 321L438 317Z" fill="#fbfbfb" stroke="#caf1ce"></path><path d="M281 437L458 446L426 400Z" fill="#f8f8f8" stroke="#caf1ce"></path><path d="M1480 76L1389 0L1385 71Z" fill="#ffffff" stroke="#caf1ce"></path><path d="M1293 1013L1412 941L1366 898Z" fill="#f4f4f4" stroke="#caf1ce"></path><path d="M1588 628L1511 562L1518 615Z" fill="#f4f4f4" stroke="#caf1ce"></path><path d="M1760 409L1614 284L1593 389Z" fill="#f9f9f9" stroke="#caf1ce"></path><path d="M603 1080L642 954L593 939Z" fill="#fefefe" stroke="#caf1ce"></path><path d="M1636 778L1588 628L1521 746Z" fill="#fefefe" stroke="#caf1ce"></path><path d="M1521 746L1588 628L1481 692Z" fill="#f1f1f1" stroke="#caf1ce"></path><path d="M1528 878L1533 791L1393 807Z" fill="#f9f9f9" stroke="#caf1ce"></path><path d="M350 253L313 300L323 321Z" fill="#fcfcfc" stroke="#caf1ce"></path><path d="M281 437L426 400L341 351Z" fill="#ffffff" stroke="#caf1ce"></path><path d="M312 217L313 300L350 253Z" fill="#ffffff" stroke="#caf1ce"></path><path d="M281 437L341 351L323 321Z" fill="#f2f2f2" stroke="#caf1ce"></path><path d="M1538 235L1480 76L1427 180Z" fill="#fcfcfc" stroke="#caf1ce"></path><path d="M198 408L281 437L323 321Z" fill="#f2f2f2" stroke="#caf1ce"></path><path d="M1131 1080L1269 1080L1218 1000Z" fill="#f5f5f5" stroke="#caf1ce"></path><path d="M1293 1013L1410 1028L1412 941Z" fill="#fbfbfb" stroke="#caf1ce"></path><path d="M1614 284L1538 235L1542 318Z" fill="#f7f7f7" stroke="#caf1ce"></path><path d="M1538 235L1562 89L1480 76Z" fill="#fefefe" stroke="#caf1ce"></path><path d="M561 0L467 0L551 93Z" fill="#fefefe" stroke="#caf1ce"></path><path d="M459 83L403 64L412 207Z" fill="#f7f7f7" stroke="#caf1ce"></path><path d="M424 0L403 64L459 83Z" fill="#ffffff" stroke="#caf1ce"></path><path d="M1760 409L1593 389L1591 433Z" fill="#f2f2f2" stroke="#caf1ce"></path><path d="M1593 389L1614 284L1542 318Z" fill="#fefefe" stroke="#caf1ce"></path><path d="M403 64L312 217L412 207Z" fill="#f5f5f5" stroke="#caf1ce"></path><path d="M207 283L198 408L323 321Z" fill="#f4f4f4" stroke="#caf1ce"></path><path d="M439 1014L603 1080L593 939Z" fill="#f9f9f9" stroke="#caf1ce"></path><path d="M439 1014L593 939L490 889Z" fill="#fbfbfb" stroke="#caf1ce"></path><path d="M296 841L369 862L378 765Z" fill="#f9f9f9" stroke="#caf1ce"></path><path d="M378 765L369 862L427 813Z" fill="#fcfcfc" stroke="#caf1ce"></path><path d="M189 463L262 580L291 550Z" fill="#f9f9f9" stroke="#caf1ce"></path><path d="M291 550L262 580L433 604Z" fill="#ffffff" stroke="#caf1ce"></path><path d="M1529 1007L1528 878L1412 941Z" fill="#fcfcfc" stroke="#caf1ce"></path><path d="M1412 941L1528 878L1393 807Z" fill="#f8f8f8" stroke="#caf1ce"></path><path d="M1533 791L1636 778L1521 746Z" fill="#f5f5f5" stroke="#caf1ce"></path><path d="M262 580L299 743L433 604Z" fill="#f5f5f5" stroke="#caf1ce"></path><path d="M1269 1080L1336 1080L1293 1013Z" fill="#ffffff" stroke="#caf1ce"></path><path d="M467 0L424 0L459 83Z" fill="#f8f8f8" stroke="#caf1ce"></path><path d="M212 206L207 283L312 217Z" fill="#ffffff" stroke="#caf1ce"></path><path d="M1336 1080L1410 1028L1293 1013Z" fill="#f7f7f7" stroke="#caf1ce"></path><path d="M1677 225L1631 229L1614 284Z" fill="#f9f9f9" stroke="#caf1ce"></path><path d="M1614 284L1631 229L1582 219Z" fill="#f7f7f7" stroke="#caf1ce"></path><path d="M1582 219L1562 89L1538 235Z" fill="#f5f5f5" stroke="#caf1ce"></path><path d="M1634 69L1562 89L1582 219Z" fill="#f2f2f2" stroke="#caf1ce"></path><path d="M1480 76L1503 0L1389 0Z" fill="#f5f5f5" stroke="#caf1ce"></path><path d="M1562 89L1503 0L1480 76Z" fill="#fbfbfb" stroke="#caf1ce"></path><path d="M148 557L227 606L262 580Z" fill="#f2f2f2" stroke="#caf1ce"></path><path d="M262 580L227 606L299 743Z" fill="#f9f9f9" stroke="#caf1ce"></path><path d="M189 463L291 550L281 437Z" fill="#fcfcfc" stroke="#caf1ce"></path><path d="M370 947L439 1014L490 889Z" fill="#f9f9f9" stroke="#caf1ce"></path><path d="M370 947L490 889L369 862Z" fill="#f4f4f4" stroke="#caf1ce"></path><path d="M370 947L369 862L300 914Z" fill="#f7f7f7" stroke="#caf1ce"></path><path d="M1336 1080L1391 1080L1410 1028Z" fill="#f8f8f8" stroke="#caf1ce"></path><path d="M1410 1028L1529 1007L1412 941Z" fill="#fbfbfb" stroke="#caf1ce"></path><path d="M1658 866L1533 791L1528 878Z" fill="#fbfbfb" stroke="#caf1ce"></path><path d="M1658 866L1636 778L1533 791Z" fill="#f4f4f4" stroke="#caf1ce"></path><path d="M1696 661L1702 516L1601 538Z" fill="#fbfbfb" stroke="#caf1ce"></path><path d="M1601 538L1702 516L1591 433Z" fill="#f7f7f7" stroke="#caf1ce"></path><path d="M296 841L378 765L299 743Z" fill="#ffffff" stroke="#caf1ce"></path><path d="M173 769L296 841L299 743Z" fill="#f7f7f7" stroke="#caf1ce"></path><path d="M1696 661L1601 538L1588 628Z" fill="#fefefe" stroke="#caf1ce"></path><path d="M1636 778L1682 675L1588 628Z" fill="#f4f4f4" stroke="#caf1ce"></path><path d="M207 283L313 300L312 217Z" fill="#fefefe" stroke="#caf1ce"></path><path d="M207 283L323 321L313 300Z" fill="#fefefe" stroke="#caf1ce"></path><path d="M198 408L189 463L281 437Z" fill="#fcfcfc" stroke="#caf1ce"></path><path d="M1764 685L1696 661L1682 675Z" fill="#f9f9f9" stroke="#caf1ce"></path><path d="M1682 675L1696 661L1588 628Z" fill="#f2f2f2" stroke="#caf1ce"></path><path d="M1763 298L1677 225L1614 284Z" fill="#f4f4f4" stroke="#caf1ce"></path><path d="M1692 110L1634 69L1582 219Z" fill="#f8f8f8" stroke="#caf1ce"></path><path d="M1562 89L1585 0L1503 0Z" fill="#fefefe" stroke="#caf1ce"></path><path d="M301 49L312 217L403 64Z" fill="#f1f1f1" stroke="#caf1ce"></path><path d="M88 562L148 557L46 447Z" fill="#f2f2f2" stroke="#caf1ce"></path><path d="M424 0L301 49L403 64Z" fill="#f4f4f4" stroke="#caf1ce"></path><path d="M1548 1080L1529 1007L1410 1028Z" fill="#ffffff" stroke="#caf1ce"></path><path d="M1636 778L1708 782L1682 675Z" fill="#ffffff" stroke="#caf1ce"></path><path d="M423 1080L449 1080L439 1014Z" fill="#f7f7f7" stroke="#caf1ce"></path><path d="M439 1014L449 1080L603 1080Z" fill="#f5f5f5" stroke="#caf1ce"></path><path d="M423 1080L439 1014L329 1080Z" fill="#f2f2f2" stroke="#caf1ce"></path><path d="M291 946L300 914L183 860Z" fill="#f7f7f7" stroke="#caf1ce"></path><path d="M296 841L300 914L369 862Z" fill="#f5f5f5" stroke="#caf1ce"></path><path d="M173 769L299 743L227 606Z" fill="#f9f9f9" stroke="#caf1ce"></path><path d="M301 49L212 206L312 217Z" fill="#fbfbfb" stroke="#caf1ce"></path><path d="M143 357L189 463L198 408Z" fill="#fefefe" stroke="#caf1ce"></path><path d="M1634 69L1585 0L1562 89Z" fill="#f9f9f9" stroke="#caf1ce"></path><path d="M1529 1007L1588 958L1528 878Z" fill="#f4f4f4" stroke="#caf1ce"></path><path d="M1692 110L1582 219L1631 229Z" fill="#f9f9f9" stroke="#caf1ce"></path><path d="M329 1080L439 1014L370 947Z" fill="#ffffff" stroke="#caf1ce"></path><path d="M1588 958L1658 866L1528 878Z" fill="#f5f5f5" stroke="#caf1ce"></path><path d="M143 357L198 408L207 283Z" fill="#f1f1f1" stroke="#caf1ce"></path><path d="M189 463L148 557L262 580Z" fill="#f4f4f4" stroke="#caf1ce"></path><path d="M183 860L300 914L296 841Z" fill="#fbfbfb" stroke="#caf1ce"></path><path d="M300 914L291 946L370 947Z" fill="#f7f7f7" stroke="#caf1ce"></path><path d="M1768 494L1760 409L1702 516Z" fill="#fbfbfb" stroke="#caf1ce"></path><path d="M1702 516L1760 409L1591 433Z" fill="#f8f8f8" stroke="#caf1ce"></path><path d="M1677 225L1692 110L1631 229Z" fill="#f7f7f7" stroke="#caf1ce"></path><path d="M1768 494L1702 516L1808 542Z" fill="#fefefe" stroke="#caf1ce"></path><path d="M1658 866L1708 782L1636 778Z" fill="#f2f2f2" stroke="#caf1ce"></path><path d="M1784 482L1768 494L1808 542Z" fill="#f9f9f9" stroke="#caf1ce"></path><path d="M139 280L143 357L207 283Z" fill="#f2f2f2" stroke="#caf1ce"></path><path d="M1774 200L1692 110L1677 225Z" fill="#f8f8f8" stroke="#caf1ce"></path><path d="M1634 69L1761 0L1585 0Z" fill="#f7f7f7" stroke="#caf1ce"></path><path d="M141 736L173 769L227 606Z" fill="#fefefe" stroke="#caf1ce"></path><path d="M1760 409L1763 298L1614 284Z" fill="#ffffff" stroke="#caf1ce"></path><path d="M1793 348L1763 298L1760 409Z" fill="#f7f7f7" stroke="#caf1ce"></path><path d="M1808 542L1702 516L1696 661Z" fill="#fefefe" stroke="#caf1ce"></path><path d="M1768 494L1784 482L1760 409Z" fill="#fbfbfb" stroke="#caf1ce"></path><path d="M212 206L139 280L207 283Z" fill="#f1f1f1" stroke="#caf1ce"></path><path d="M82 591L227 606L148 557Z" fill="#fefefe" stroke="#caf1ce"></path><path d="M133 195L139 280L212 206Z" fill="#f7f7f7" stroke="#caf1ce"></path><path d="M1708 782L1764 685L1682 675Z" fill="#f4f4f4" stroke="#caf1ce"></path><path d="M424 0L264 0L301 49Z" fill="#fefefe" stroke="#caf1ce"></path><path d="M301 49L148 123L212 206Z" fill="#f9f9f9" stroke="#caf1ce"></path><path d="M1751 957L1733 878L1658 866Z" fill="#fbfbfb" stroke="#caf1ce"></path><path d="M1658 866L1733 878L1708 782Z" fill="#f5f5f5" stroke="#caf1ce"></path><path d="M1708 782L1831 733L1764 685Z" fill="#f7f7f7" stroke="#caf1ce"></path><path d="M1529 1007L1548 1080L1588 958Z" fill="#f9f9f9" stroke="#caf1ce"></path><path d="M1391 1080L1548 1080L1410 1028Z" fill="#f8f8f8" stroke="#caf1ce"></path><path d="M82 591L141 736L227 606Z" fill="#f8f8f8" stroke="#caf1ce"></path><path d="M173 769L183 860L296 841Z" fill="#f9f9f9" stroke="#caf1ce"></path><path d="M148 557L189 463L46 447Z" fill="#f2f2f2" stroke="#caf1ce"></path><path d="M1920 405L1793 348L1760 409Z" fill="#f4f4f4" stroke="#caf1ce"></path><path d="M1794 243L1774 200L1677 225Z" fill="#fbfbfb" stroke="#caf1ce"></path><path d="M133 847L183 860L173 769Z" fill="#f5f5f5" stroke="#caf1ce"></path><path d="M291 946L329 1080L370 947Z" fill="#f7f7f7" stroke="#caf1ce"></path><path d="M1764 685L1808 542L1696 661Z" fill="#f4f4f4" stroke="#caf1ce"></path><path d="M1784 482L1920 405L1760 409Z" fill="#f5f5f5" stroke="#caf1ce"></path><path d="M179 1080L329 1080L291 946Z" fill="#f1f1f1" stroke="#caf1ce"></path><path d="M148 123L133 195L212 206Z" fill="#fefefe" stroke="#caf1ce"></path><path d="M46 447L189 463L143 357Z" fill="#ffffff" stroke="#caf1ce"></path><path d="M264 0L229 0L301 49Z" fill="#f5f5f5" stroke="#caf1ce"></path><path d="M46 447L143 357L0 393Z" fill="#f4f4f4" stroke="#caf1ce"></path><path d="M1794 243L1677 225L1763 298Z" fill="#ffffff" stroke="#caf1ce"></path><path d="M1920 286L1794 243L1793 348Z" fill="#f8f8f8" stroke="#caf1ce"></path><path d="M1793 348L1794 243L1763 298Z" fill="#f2f2f2" stroke="#caf1ce"></path><path d="M1751 957L1658 866L1588 958Z" fill="#fcfcfc" stroke="#caf1ce"></path><path d="M1764 685L1860 676L1808 542Z" fill="#fefefe" stroke="#caf1ce"></path><path d="M0 596L82 591L88 562Z" fill="#f4f4f4" stroke="#caf1ce"></path><path d="M88 562L82 591L148 557Z" fill="#fcfcfc" stroke="#caf1ce"></path><path d="M141 736L133 847L173 769Z" fill="#ffffff" stroke="#caf1ce"></path><path d="M229 0L148 123L301 49Z" fill="#f7f7f7" stroke="#caf1ce"></path><path d="M52 768L133 847L141 736Z" fill="#f8f8f8" stroke="#caf1ce"></path><path d="M183 860L146 962L291 946Z" fill="#ffffff" stroke="#caf1ce"></path><path d="M0 482L46 447L0 393Z" fill="#f2f2f2" stroke="#caf1ce"></path><path d="M0 393L143 357L0 317Z" fill="#fcfcfc" stroke="#caf1ce"></path><path d="M82 872L146 962L133 847Z" fill="#f1f1f1" stroke="#caf1ce"></path><path d="M1851 786L1831 733L1708 782Z" fill="#f2f2f2" stroke="#caf1ce"></path><path d="M1808 542L1920 405L1784 482Z" fill="#f1f1f1" stroke="#caf1ce"></path><path d="M1548 1080L1658 1080L1588 958Z" fill="#f4f4f4" stroke="#caf1ce"></path><path d="M1733 878L1813 849L1708 782Z" fill="#f2f2f2" stroke="#caf1ce"></path><path d="M1920 728L1860 676L1831 733Z" fill="#ffffff" stroke="#caf1ce"></path><path d="M1831 733L1860 676L1764 685Z" fill="#fcfcfc" stroke="#caf1ce"></path><path d="M1658 1080L1751 957L1588 958Z" fill="#f9f9f9" stroke="#caf1ce"></path><path d="M1751 957L1813 849L1733 878Z" fill="#ffffff" stroke="#caf1ce"></path><path d="M52 768L141 736L82 591Z" fill="#fefefe" stroke="#caf1ce"></path><path d="M133 847L146 962L183 860Z" fill="#f9f9f9" stroke="#caf1ce"></path><path d="M229 0L144 0L148 123Z" fill="#f7f7f7" stroke="#caf1ce"></path><path d="M148 123L0 110L133 195Z" fill="#f5f5f5" stroke="#caf1ce"></path><path d="M1795 54L1774 200L1920 146Z" fill="#f4f4f4" stroke="#caf1ce"></path><path d="M1795 54L1692 110L1774 200Z" fill="#f8f8f8" stroke="#caf1ce"></path><path d="M1795 54L1761 0L1692 110Z" fill="#f1f1f1" stroke="#caf1ce"></path><path d="M1692 110L1761 0L1634 69Z" fill="#f2f2f2" stroke="#caf1ce"></path><path d="M144 0L109 61L148 123Z" fill="#f1f1f1" stroke="#caf1ce"></path><path d="M1920 146L1774 200L1794 243Z" fill="#f9f9f9" stroke="#caf1ce"></path><path d="M0 596L52 768L82 591Z" fill="#fefefe" stroke="#caf1ce"></path><path d="M1813 849L1851 786L1708 782Z" fill="#f1f1f1" stroke="#caf1ce"></path><path d="M1920 728L1851 786L1920 820Z" fill="#fcfcfc" stroke="#caf1ce"></path><path d="M143 357L139 280L0 317Z" fill="#f9f9f9" stroke="#caf1ce"></path><path d="M46 447L0 534L88 562Z" fill="#f9f9f9" stroke="#caf1ce"></path><path d="M0 482L0 534L46 447Z" fill="#f9f9f9" stroke="#caf1ce"></path><path d="M52 768L82 872L133 847Z" fill="#fefefe" stroke="#caf1ce"></path><path d="M0 317L139 280L0 225Z" fill="#f7f7f7" stroke="#caf1ce"></path><path d="M0 534L0 596L88 562Z" fill="#fcfcfc" stroke="#caf1ce"></path><path d="M52 768L0 796L82 872Z" fill="#f2f2f2" stroke="#caf1ce"></path><path d="M0 225L139 280L133 195Z" fill="#fbfbfb" stroke="#caf1ce"></path><path d="M1795 54L1795 0L1761 0Z" fill="#f5f5f5" stroke="#caf1ce"></path><path d="M1920 0L1795 0L1795 54Z" fill="#fefefe" stroke="#caf1ce"></path><path d="M1920 565L1808 542L1920 606Z" fill="#f8f8f8" stroke="#caf1ce"></path><path d="M1920 565L1920 405L1808 542Z" fill="#f1f1f1" stroke="#caf1ce"></path><path d="M1920 606L1808 542L1860 676Z" fill="#f5f5f5" stroke="#caf1ce"></path><path d="M1920 728L1920 606L1860 676Z" fill="#f5f5f5" stroke="#caf1ce"></path><path d="M1920 405L1920 338L1793 348Z" fill="#fbfbfb" stroke="#caf1ce"></path><path d="M111 1021L179 1080L146 962Z" fill="#f8f8f8" stroke="#caf1ce"></path><path d="M146 962L179 1080L291 946Z" fill="#f5f5f5" stroke="#caf1ce"></path><path d="M0 110L0 225L133 195Z" fill="#fefefe" stroke="#caf1ce"></path><path d="M0 110L148 123L109 61Z" fill="#f8f8f8" stroke="#caf1ce"></path><path d="M1920 338L1920 286L1793 348Z" fill="#f5f5f5" stroke="#caf1ce"></path><path d="M0 596L0 769L52 768Z" fill="#ffffff" stroke="#caf1ce"></path><path d="M0 954L111 1021L146 962Z" fill="#fbfbfb" stroke="#caf1ce"></path><path d="M1658 1080L1747 1080L1751 957Z" fill="#f4f4f4" stroke="#caf1ce"></path><path d="M1751 957L1920 963L1813 849Z" fill="#f4f4f4" stroke="#caf1ce"></path><path d="M1851 786L1920 728L1831 733Z" fill="#fbfbfb" stroke="#caf1ce"></path><path d="M1920 820L1851 786L1920 849Z" fill="#f1f1f1" stroke="#caf1ce"></path><path d="M0 954L146 962L82 872Z" fill="#fbfbfb" stroke="#caf1ce"></path><path d="M0 769L0 796L52 768Z" fill="#f7f7f7" stroke="#caf1ce"></path><path d="M1747 1080L1806 1021L1751 957Z" fill="#ffffff" stroke="#caf1ce"></path><path d="M0 0L0 110L109 61Z" fill="#f7f7f7" stroke="#caf1ce"></path><path d="M1920 286L1920 146L1794 243Z" fill="#f1f1f1" stroke="#caf1ce"></path><path d="M1920 849L1851 786L1813 849Z" fill="#fbfbfb" stroke="#caf1ce"></path><path d="M0 796L0 877L82 872Z" fill="#f7f7f7" stroke="#caf1ce"></path><path d="M1920 963L1920 849L1813 849Z" fill="#f5f5f5" stroke="#caf1ce"></path><path d="M1920 146L1920 87L1795 54Z" fill="#fbfbfb" stroke="#caf1ce"></path><path d="M1747 1080L1816 1080L1806 1021Z" fill="#f8f8f8" stroke="#caf1ce"></path><path d="M1806 1021L1920 963L1751 957Z" fill="#f1f1f1" stroke="#caf1ce"></path><path d="M0 877L0 954L82 872Z" fill="#fcfcfc" stroke="#caf1ce"></path><path d="M111 1021L64 1080L179 1080Z" fill="#f5f5f5" stroke="#caf1ce"></path><path d="M144 0L0 0L109 61Z" fill="#fbfbfb" stroke="#caf1ce"></path><path d="M0 954L64 1080L111 1021Z" fill="#f1f1f1" stroke="#caf1ce"></path><path d="M1920 87L1920 0L1795 54Z" fill="#fefefe" stroke="#caf1ce"></path><path d="M1920 1080L1920 963L1806 1021Z" fill="#f9f9f9" stroke="#caf1ce"></path><path d="M0 954L0 1080L64 1080Z" fill="#ffffff" stroke="#caf1ce"></path><path d="M1816 1080L1920 1080L1806 1021Z" fill="#fbfbfb" stroke="#caf1ce"></path></g></svg>